<?xml version="1.0" encoding="utf-8"?>
<!-- Generator: Adobe Illustrator 25.4.1, SVG Export Plug-In . SVG Version: 6.00 Build 0)  -->
<svg version="1.1" id="Layer_1" xmlns="http://www.w3.org/2000/svg" xmlns:xlink="http://www.w3.org/1999/xlink" x="0px" y="0px"
	 viewBox="0 0 601.7 512" style="enable-background:new 0 0 601.7 512;" xml:space="preserve">
<style type="text/css">
	.st0{fill:#EDE0D4;}
	.st1{font-family:'Futura-Medium';}
	.st2{font-size:24px;}
	.st3{font-size:24.097px;}
</style>
<polygon class="st0" points="273.1,178.4 264.6,186.9 414.5,336.8 440.2,311.1 298.9,169.8 344,124.7 485.3,266 493.8,257.5 
	344,107.6 281.8,169.8 423.1,311.1 414.5,319.8 "/>
<path class="st0" d="M596.2,241.8C564.9,79.8,408.1-26.1,246.1,5.3c-58.6,11.3-112.5,40-154.7,82.3l8.5,8.5
	c13.7-13.7,28.8-26.1,45-36.8c31.2-20.6,66.2-34.9,103-42c54.6-10.6,111.2-5.1,162.7,15.7c17.5,7.1,34.2,15.9,49.9,26.2
	c32.5,21.5,60.3,49.3,81.8,81.8c20.6,31.2,34.9,66.2,42,103c10.6,54.6,5.1,111.1-15.8,162.7c-7.1,17.5-15.9,34.2-26.2,49.9
	c-10.2,15.5-22,30-35,43.2H101.8l66.5-66.6l157.1-157l-75.1-75L89.7,361.9V512h422.7l1.8-1.8c14.3-14.3,27.1-30,38.3-46.9
	c21.5-32.6,36.4-69,43.8-107.4C603.5,318.3,603.5,279.5,596.2,241.8L596.2,241.8z"/>
<text transform="matrix(-0.6518 0.7584 -0.7584 -0.6518 81.9902 97.3198)" class="st0 st1 st2">U</text>
<text transform="matrix(-0.5828 0.8126 -0.8126 -0.5828 62.0294 121.8399)" class="st0 st1 st2">I</text>
<text transform="matrix(-0.4471 0.8945 -0.8945 -0.4471 39.46 157.3302)" class="st0 st1 st2">U</text>
<text transform="matrix(-0.3536 0.9354 -0.9354 -0.3536 25.9591 186.11)" class="st0 st1 st2">X</text>
<text transform="matrix(-0.1876 0.9823 -0.9823 -0.1876 11.0691 233.7699)" class="st0 st1 st2">D</text>
<text transform="matrix(-8.976350e-02 0.996 -0.996 -8.976350e-02 5.9497 264.77)" class="st0 st1 st2">E</text>
<text transform="matrix(1.623086e-02 0.9999 -0.9999 1.623086e-02 4.0004 292.29)" class="st0 st1 st2">V</text>
<text transform="matrix(0.1004 0.995 -0.995 0.1004 4.97 322.31)" class="st0 st1 st2">E</text>
<text transform="matrix(0.1865 0.9825 -0.9825 0.1865 8.3896 349.53)" class="st0 st1 st2">L</text>
<text transform="matrix(0.2825 0.9593 -0.9593 0.2825 13.23 372.9599)" class="st0 st1 st2">O</text>
<text transform="matrix(0.3819 0.9242 -0.9242 0.3819 24.19 406.74)" class="st0 st1 st2">P</text>
<text transform="matrix(0.4648 0.8854 -0.8854 0.4648 35.0397 431.36)" class="st0 st1 st2">E</text>
<text transform="matrix(0.5478 0.8366 -0.8366 0.5478 48.3804 455.4198)" class="st0 st1 st3">R</text>
</svg>
