<?xml version="1.0" encoding="utf-8"?>
<!-- Generator: Adobe Illustrator 22.1.0, SVG Export Plug-In . SVG Version: 6.00 Build 0)  -->
<svg version="1.1" id="Capa_1" xmlns="http://www.w3.org/2000/svg" xmlns:xlink="http://www.w3.org/1999/xlink" x="0px" y="0px"
	 viewBox="0 0 100 100" style="enable-background:new 0 0 100 100;" xml:space="preserve">
<style type="text/css">
	.st0{fill:#AAAAAA;}
	.st1{fill:#F26522;}
</style>
<g>
	<path class="st0" d="M63.3,76.8c-0.5,10.4-7.4,19-17.3,22.1c-2.4,0.8-5,1.2-7.5,1.1c-11.3-0.4-21.1-8.1-23.4-19.6
		c-0.6-3.2-0.5-6.3-0.5-9.5c0-11.5,0-22.9,0-34.4c0-9.1,6.5-16.2,14.8-17.7c1.1-0.2,2.3-0.2,3.4-0.3c1,0,2,0,3.1,0
		c0,10.9,0,21.7,0,32.6c9.2,0,18.2,0,27.4,0c0,0.5,0,0.9,0,1.3"/>
	<path class="st1" d="M42.2,18.6c6.2-0.6,11.7,0.8,16.2,5.4c3.4,3.4,5,7.6,5,12.4c0,3.2,0,6.5,0,9.7c0,0.3,0,0.6,0,0.9
		c-7.1,0-14.1,0-21.2,0C42.2,37.5,42.2,28.1,42.2,18.6z"/>
	<path class="st1" d="M47.2,16l-3.8-0.3c-0.6-0.1-1.1-0.6-1.1-1.2l0.1-13.2c0-0.7,0.6-1.3,1.3-1.2l5.8,0.5c0.7,0.1,1.2,0.7,1.1,1.4
		l-2.1,13C48.4,15.6,47.9,16.1,47.2,16z"/>
	<path class="st1" d="M61.7,23l-2.9-2.4c-0.5-0.4-0.6-1.1-0.2-1.6l7.5-10.9c0.4-0.6,1.2-0.7,1.8-0.3l4.5,3.7
		c0.6,0.5,0.6,1.3,0.1,1.8l-9.1,9.6C62.9,23.4,62.2,23.5,61.7,23z"/>
	<path class="st1" d="M70.1,37.4l-1.2-3.6c-0.2-0.6,0.1-1.3,0.7-1.5l12.2-5.2c0.7-0.3,1.4,0.1,1.6,0.7l1.9,5.5
		c0.2,0.7-0.2,1.4-0.9,1.6l-12.8,3.3C71,38.4,70.3,38,70.1,37.4z"/>
</g>
</svg>
