<?xml version="1.0" encoding="utf-8"?>
<!-- Generator: Adobe Illustrator 25.4.1, SVG Export Plug-In . SVG Version: 6.00 Build 0)  -->
<svg version="1.1" id="Layer_1" xmlns="http://www.w3.org/2000/svg" xmlns:xlink="http://www.w3.org/1999/xlink" x="0px" y="0px"
	 viewBox="0 0 755 710.4" style="enable-background:new 0 0 755 710.4;" xml:space="preserve">
<style type="text/css">
	.st0{fill:#FFE2AE;}
	.st1{fill:#FEFAE0;}
	.st2{fill:#FB5D64;}
	.st3{fill:none;stroke:#FEFAE0;stroke-width:3;stroke-miterlimit:10;}
	.st4{fill:#DDA15E;}
	.st5{fill:none;stroke:#EFDFB1;stroke-width:3;stroke-linecap:round;stroke-linejoin:round;}
	.st6{fill:none;stroke:#BC6C25;stroke-width:3;stroke-linecap:round;stroke-linejoin:round;}
	.st7{fill:#283618;}
	.st8{fill:#EECB55;}
	.st9{fill:#FFFFFF;}
	.st10{fill:none;stroke:#7F5539;stroke-width:3.69;stroke-linecap:round;stroke-linejoin:round;}
	.st11{fill:#606C38;}
	.st12{fill:#7F5539;}
</style>
<g id="Layer_2_00000152942433281606904270000012399391034593367699_">
	<g id="Layer_1-2">
		<g>
			
				<rect x="58.4" y="42.5" transform="matrix(0.9612 -0.2758 0.2758 0.9612 -31.862 40.3406)" class="st0" width="138.2" height="181.8"/>
			
				<rect x="36.8" y="45.6" transform="matrix(0.9612 -0.2758 0.2758 0.9612 -11.9366 31.4622)" class="st1" width="138.2" height="25.2"/>
			
				<ellipse transform="matrix(0.9612 -0.2758 0.2758 0.9612 -17.9883 17.7575)" class="st2" cx="54.1" cy="72.8" rx="6.2" ry="6.2"/>
			<ellipse transform="matrix(0.9612 -0.2758 0.2758 0.9612 -15.8377 22.584)" class="st2" cx="72.4" cy="67.6" rx="6.2" ry="6.2"/>
			<ellipse transform="matrix(0.9612 -0.2758 0.2758 0.9612 -13.686 27.413)" class="st2" cx="90.6" cy="62.4" rx="6.2" ry="6.2"/>
			
				<rect x="71.3" y="98.2" transform="matrix(0.9612 -0.2758 0.2758 0.9612 -30.8818 29.76)" class="st1" width="38.2" height="53"/>
			<line class="st3" x1="114.1" y1="90.3" x2="163.9" y2="76"/>
			<line class="st3" x1="87.3" y1="183.4" x2="186.6" y2="154.9"/>
			<line class="st3" x1="94.9" y1="209.7" x2="194.1" y2="181.2"/>
			<line class="st3" x1="121.7" y1="116.6" x2="171.5" y2="102.3"/>
			<line class="st3" x1="129.2" y1="142.9" x2="179" y2="128.6"/>
		</g>
		<path class="st1" d="M682.7,59.9c49.7,61.8,34.5,176.8,26.4,283.6S700.2,549,650.5,616c-49.9,67.1-148.5,102.3-237.7,92.8
			c-89.1-9.7-168.6-64.3-247-131.4S9.9,431,12.2,353.8s84.5-151.9,162.9-213.6S328.4,29.7,423.1,9.7S633-1.9,682.7,59.9"/>
		<rect x="77.9" y="202.6" class="st4" width="599.5" height="377.7"/>
		<rect x="77.9" y="145.5" class="st4" width="599.5" height="47.7"/>
		<path class="st2" d="M569.7,169.3c0,6.6-5.3,11.9-11.9,11.9c-6.6,0-11.9-5.3-11.9-11.9c0-6.6,5.3-11.9,11.8-11.9c0,0,0,0,0,0
			C564.4,157.5,569.7,162.8,569.7,169.3"/>
		<path class="st2" d="M615.3,169.3c0,6.6-5.3,11.9-11.8,11.9c-6.6,0-11.9-5.3-11.9-11.9c0-6.6,5.3-11.9,11.8-11.9c0,0,0,0,0,0
			C609.9,157.5,615.3,162.8,615.3,169.3"/>
		<path class="st2" d="M660.8,169.3c0,6.6-5.3,11.9-11.9,11.9c-6.6,0-11.9-5.3-11.9-11.9s5.3-11.9,11.9-11.9c0,0,0,0,0,0
			C655.5,157.5,660.9,162.8,660.8,169.3"/>
		<path class="st1" d="M602.8,250.4c-6.2,0-7.9,12.4-19,12.4h-65.5v65.9h104.8v-78.2H602.8z"/>
		<path class="st1" d="M468.4,250.4c-6.2,0-7.9,12.4-19,12.4h-65.5v65.9h104.8v-78.2H468.4z"/>
		<path class="st1" d="M315,262.8h-65.5v65.9h104.8v-78.2H334C327.8,250.4,326.1,262.8,315,262.8"/>
		<path class="st1" d="M180.6,262.8h-65.5v65.9h104.8v-78.2h-20.3C193.4,250.4,191.7,262.8,180.6,262.8"/>
		<path class="st5" d="M488.1,385.9l-25.2,91.8l82.9-16.1L488.1,385.9z"/>
		<circle class="st5" cx="381" cy="584.7" r="32"/>
		<circle class="st5" cx="422.5" cy="532.8" r="17"/>
		<path class="st6" d="M232,107.2l94.2,20l-119.9,90L232,107.2z"/>
		<g>
			<rect x="35.2" y="400.1" class="st0" width="171.1" height="253.8"/>
			<path class="st1" d="M174.1,478.3c0,29.5-23.9,53.4-53.4,53.4s-53.4-23.9-53.4-53.4c0-29.5,23.9-53.4,53.4-53.4c0,0,0,0,0,0
				C150.2,424.9,174.1,448.8,174.1,478.3"/>
			<rect x="54.3" y="556" class="st4" width="133" height="29.2"/>
			<rect x="54.3" y="605.9" class="st4" width="133" height="29.2"/>
		</g>
		<g>
			<path class="st7" d="M699.8,629.6c-8.3-1.6-128.4,9.6-130.7,25c28.4,16.4,123,35.2,140.3,37.4C704.3,676.5,700,635.3,699.8,629.6
				"/>
			<path class="st8" d="M643.4,321.8C643.4,321.8,643.4,321.8,643.4,321.8c0-14.2,11.5-25.7,25.7-25.7l0,0
				c14.2,0,25.7,11.5,25.7,25.7c0,14.2-11.5,25.7-25.7,25.7C654.9,347.5,643.4,336,643.4,321.8"/>
			<path class="st8" d="M563,366.3c4.2,2.9,9.1,3,13.1,4.6c4,1.7-0.2,22.3,4.5,57.4c4.7,35.1-3.6,44.1-9.3,51.3
				s-23.2,42.3-20.1,47.3c3.1,4.9,120,9.7,145.2-1.8c25.2-11.5,8.7-46.4,5.4-51c-8.7-18-20.1-37.2-25.5-46.7
				c-8.5-15-12.6-56.6-22.8-75.5c-13.6-25.4-34.9-32.1-53-32.1c-25.9,0-42.1,10-42.1,31.3C558.6,359.7,561.2,365.5,563,366.3"/>
			<path class="st9" d="M628,390.9c0-6,4.9-10.9,10.9-10.9c6,0,10.9,4.9,10.9,10.9s-4.9,10.9-10.9,10.9S628,396.9,628,390.9"/>
			<path class="st10" d="M713.6,687.9c-5.2-15.5-9.4-56.7-9.7-62.4"/>
			<path class="st9" d="M462.2,455.4c-18.1,11.1-14.8,13.7-14.8,17.7c1.5,9,12,23.3,18.3,27.5c3.2,2.1,46.3,101.2,57.5,108.9
				c2.7,1.8,12.9,5.5,22.5,5.5c5,0,16.7-11.6,18.6-15.5c-2.3-12.4-0.4-50.6,0-53.7c-3.4-1.1-14.8-7.6-19.3-11.3
				c-1.8,4.8-7.6,31.8-7.8,31c-2-2.2-47.7-72.3-48.9-73.9c-1.2-1.6,0-19.8-3.2-22.4c-0.8-0.7-2.8-1-5.2-1.1l0,0
				c-3.1-3.2-18.9-35.2-20.1-36.8C456.2,426.6,453.7,442,462.2,455.4"/>
			<path class="st11" d="M589.6,469.1c10.9,3.6-9,78.9-15.2,79.7c-6.2,0.8-34.6-14.6-36.6-19.8S561.5,459.9,589.6,469.1"/>
			<path class="st10" d="M578.6,544.7c-6.2,0.8-34.6-14.6-36.6-19.8c-2-5.1,23.6-69.1,51.8-59.9
				C604.8,468.5,584.8,543.9,578.6,544.7z"/>
			<path class="st11" d="M623.6,453.1c75.7-1.8,81,173.2,75.4,178.7c-24.3,23.9-126.4,16.1-131.3,7.5
				C564,633.1,543.8,455,623.6,453.1"/>
			<path class="st10" d="M579.1,490.5c9-23.8,24.1-41,48.6-41.5c3.1-0.1,6.2,0.1,9.2,0.7"/>
			<path class="st10" d="M646.5,452.6c57.8,24.8,61.7,170.2,56.6,175.2c-24.3,23.9-126.4,16.1-131.3,7.5c-1.6-2.8-6.6-40-4.4-80.3"
				/>
			<path class="st9" d="M569.7,346.6c-7.9,13.9-8.1,18.4-8.1,35.3c0,32.3,18,58.5,40.2,58.5c1.2,0,2.5-0.1,3.7-0.2l0,0
				c0.8,2.5,0.9,24.7,0.5,28c3.2,3.3,32.2,3.7,38-1.7c-1.5-4.8-6.9-51.2-4.4-64.3c0,0-0.2-8.1-0.6-22.2S569.6,356.5,569.7,346.6"/>
			<path class="st11" d="M664.7,458.5c39.3-12.2,59.6,60.8,58.4,67.3s-59,23-64.9,20.1C652.3,542.9,633.8,468.1,664.7,458.5"/>
			<path class="st10" d="M722.8,502.6c3.3,9.5,4.8,17.2,4.4,19.1c-1.2,6.5-59,23-64.9,20.1c-3.3-1.7-10.6-26-10.9-48.8"/>
			<path class="st10" d="M665.2,455.9c1.2-0.6,2.4-1.2,3.6-1.5c15.6-4.9,28.2,3.7,37.7,16.3"/>
			<path class="st10" d="M476,478.1c-2-0.6-10.4-8.2-10.4-10.6s20.4-4.9,23.6-2.3c3.2,2.6,2,20.8,3.2,22.4
				c0.6,0.9,14.2,21.7,26.9,41"/>
			<path class="st10" d="M532.7,548.8c4.7,7.1,8.1,12.1,8.6,12.7c0.2,0.8,5.8-25.6,7.5-30.4"/>
			<path class="st10" d="M484.1,464.1c-3.1-3.2-18.9-35.2-20.1-36.8c-3.6-4.8-6.1,10.7,2.4,24.1"/>
			<path class="st10" d="M469.8,465.6c0,0-5.2-8.6-6.3-10.8"/>
			<path class="st10" d="M465.7,472.5c-2.9-4.6-5.5-9.4-7.7-14.3"/>
			<path class="st10" d="M461.8,478.1c-3.3-5.2-6.3-10.6-8.8-16.2"/>
			<path class="st10" d="M567.4,597.1c-1.9,3.8-12.6,13.8-17.6,13.8c-9.6,0-19.8-3.7-22.5-5.5c-11.2-7.7-54.4-106.8-57.5-108.9
				c-1.2-0.8-2.4-1.8-3.4-2.8"/>
			<path class="st10" d="M457.1,482c-2.8-4.5-5-9.2-5.6-12.9"/>
			<path class="st10" d="M627.7,427c-6.3,5.9-13.8,9.3-21.8,9.3c-12.6,0-23.8-8.4-31.2-21.5"/>
			<path class="st10" d="M567.8,396.1c-1.3-6-2-12.2-2-18.4c-0.1-12.2,2.6-24.3,8.1-35.3"/>
			<path class="st10" d="M638.9,376.7c3.4-1.4,7.4-1,10.4,1.1c5,3.4,6.2,10.2,2.8,15.1c-3.4,5-10.2,6.2-15.1,2.8"/>
			<path class="st10" d="M609.6,436.1c0.8,2.5,0.9,24.7,0.5,28"/>
			<path class="st10" d="M633.3,466.2c6.6-0.5,12.5-1.7,14.8-3.9c-0.6-1.9-1.8-9.8-2.8-19.7"/>
			<path class="st10" d="M643.7,424c-0.7-10.7-1-20.8,0-25.9"/>
			<path class="st10" d="M681,293.2c3.5,1.1,6.8,3,9.5,5.5c10.5,9.5,11.3,25.8,1.7,36.3"/>
			<path class="st10" d="M679.3,342.7c-5.4,1.3-11,0.9-16.1-1.3c-13.1-5.5-19.2-20.6-13.7-33.7"/>
			<path class="st10" d="M567.2,362.2c-1.8-0.9-4.5-6.7-4.5-15.2c0-14.7,7.7-24,20.9-28.4"/>
			<path class="st10" d="M608.2,315.7c17.3,0.8,36.8,8.2,49.6,32c6.8,12.7,10.9,35.6,15.4,53.8"/>
			<path class="st10" d="M687,434.6c5.7,10,13,22.9,19,35.3"/>
			<path class="st10" d="M583.4,465c0.9-1.8,1.6-5.1,2-9.1"/>
			<path class="st10" d="M586.1,446.8c0.3-8.1-0.1-16.3-0.8-18.8"/>
			<path class="st10" d="M643.1,375.8c0-17.2-71.9-19.1-71.9-39.9"/>
			<path class="st0" d="M503.3,644.5c0,0-2.4-10.6-1.8-11.6s15.4-2.9,18.5-3.3c4.2-0.6,8.2,10.8,15.1,9.6"/>
			
				<rect x="508" y="635.2" transform="matrix(0.9861 -0.1659 0.1659 0.9861 -103.0857 102.3575)" class="st0" width="106.3" height="66"/>
			<path class="st10" d="M579.1,695.2l-60.8,10.2l-4.9-29.2"/>
			<path class="st10" d="M509.4,652.6l-2.1-12.2"/>
			<path class="st10" d="M522.9,637.7l89.2-15l11,65.1l-9.5,1.6"/>
			<path class="st10" d="M507.4,640.4c0,0-2.4-10.6-1.8-11.6s15.4-2.9,18.5-3.3c4.2-0.6,8.2,10.8,15.1,9.6"/>
			
				<rect x="521.5" y="647.6" transform="matrix(0.9861 -0.1659 0.1659 0.9861 -102.4474 96.9784)" class="st2" width="15.4" height="28.2"/>
			<path class="st10" d="M543.3,650.4l59.8-10.1"/>
			<path class="st10" d="M545.6,663.1l8.9-1.5"/>
			<path class="st10" d="M571,658.9l34.4-5.8"/>
			<path class="st9" d="M538.2,643.2c0,0,22.3,0.9,26.5,0.3c4.2-0.6,3.8-2,6.7-4.3c42,3,134.9-8.4,159.6-24.2
				c4-6.5-14.5-83.9-14.5-83.9s-44.3,13.6-47.3,14.2c0.3,2.7,5.8,32.3,10.5,42c-40.4,10.5-107.4,29.5-110.8,32.2
				C543.3,618.5,539.7,631.2,538.2,643.2"/>
			<path class="st10" d="M542.3,639.1c1.6-12,5.2-24.7,30.7-23.6c1.8-1.5,21.2-7.4,45.1-14.3"/>
			<path class="st10" d="M635.8,596.2c16.7-4.7,34-9.4,48.1-13c-4.7-9.8-10.2-39.3-10.5-42"/>
			<path class="st10" d="M563.1,640.4c-0.3-4.3,0.1-8.5,1.2-12.7"/>
			<path class="st10" d="M555.4,640.4c-0.3-4.3,0.1-8.5,1.2-12.7"/>
			<path class="st10" d="M549.2,640.4c-0.3-4.3,0.1-8.5,1.2-12.7"/>
			<path class="st10" d="M575.5,635.1c20.3,1.2,125-2.2,159.6-24.2c1.5-0.9,0.8-9-1-19.8"/>
			<path class="st10" d="M728.2,560.3c-3.6-17-7.2-32-7.5-33.3"/>
			<path class="st12" d="M601.2,375.8c0,3.3-1.3,6-2.9,6s-2.9-2.7-2.9-6s1.3-6,2.9-6S601.2,372.5,601.2,375.8"/>
			<path class="st10" d="M594.1,414.6c1.9,0.3,9.5-2.1,11.2-7.3"/>
			<path class="st10" d="M585.8,381.8c-0.4,2.7-2.5,13.8-7,18.3"/>
		</g>
	</g>
</g>
</svg>
